<svg width="105" height="144" viewBox="0 0 105 144" fill="none" xmlns="http://www.w3.org/2000/svg">
<path d="M103.497 69.2957C103.878 69.7365 104.134 70.2689 104.239 70.8386C104.344 71.4082 104.295 71.9947 104.097 72.5384C103.898 73.082 103.557 73.5633 103.109 73.9331L23.9436 143.07C23.363 143.525 22.6447 143.774 21.9031 143.777C21.1616 143.78 20.4393 143.538 19.8512 143.089C19.2632 142.639 18.8431 142.008 18.6579 141.296C18.4726 140.585 18.5329 139.833 18.829 139.16L34.3029 106.471C38.6749 97.2344 34.068 86.2466 24.4161 82.8902L2.21881 75.171C1.66374 74.9779 1.17021 74.6419 0.789077 74.1976C0.407945 73.7533 0.153018 73.2167 0.0505821 72.6433C-0.0518541 72.0699 0.00190397 71.4803 0.206321 70.9354C0.410738 70.3905 0.758411 69.91 1.21349 69.5434L81.204 0.682674C81.7936 0.232115 82.52 -0.00826953 83.266 0.000217248C84.0121 0.00870445 84.7344 0.26557 85.3168 0.729461C85.8991 1.19335 86.3076 1.83728 86.4764 2.55755C86.6453 3.27782 86.5646 4.03253 86.2475 4.70016L70.086 36.5726C65.3798 45.8536 69.9385 57.1545 79.7672 60.5724L102.074 68.3295C102.626 68.5215 103.117 68.8549 103.497 69.2957Z" fill="black"/>
</svg>
