<svg width="105" height="145" viewBox="0 0 105 145" fill="none" xmlns="http://www.w3.org/2000/svg">
<path d="M103.655 70.0149C104.036 70.4557 104.291 70.9882 104.397 71.5579C104.502 72.1275 104.453 72.714 104.254 73.2576C104.056 73.8012 103.715 74.2825 103.267 74.6523L24.1016 143.789C23.5209 144.244 22.8027 144.493 22.0611 144.496C21.3195 144.5 20.5972 144.257 20.0092 143.808C19.4211 143.358 19.001 142.727 18.8158 142.016C18.6306 141.304 18.6908 140.552 18.987 139.88L34.4608 107.19C38.8329 97.9536 34.2259 86.9658 24.5741 83.6094L2.37677 75.8903C1.8217 75.6972 1.32817 75.3611 0.947036 74.9168C0.565904 74.4725 0.310977 73.9359 0.208541 73.3625C0.106105 72.7891 0.159863 72.1996 0.36428 71.6547C0.568697 71.1098 0.91637 70.6292 1.37145 70.2626L81.3619 1.40191C81.9516 0.951353 82.6779 0.710969 83.424 0.719456C84.17 0.727943 84.8924 0.984808 85.4747 1.4487C86.0571 1.91259 86.4656 2.55651 86.6344 3.27679C86.8032 3.99706 86.7226 4.75177 86.4054 5.4194L70.2439 37.2918C65.5378 46.5728 70.0964 57.8737 79.9251 61.2917L102.232 69.0488C102.784 69.2407 103.275 69.5742 103.655 70.0149Z" fill="url(#paint0_linear_556_499)"/>
<defs>
<linearGradient id="paint0_linear_556_499" x1="55.947" y1="23.6625" x2="49.1614" y2="114.581" gradientUnits="userSpaceOnUse">
<stop stop-color="#F9FD42"/>
<stop offset="1" stop-color="#FFAB5E"/>
</linearGradient>
</defs>
</svg>
