<svg width="131" height="40" viewBox="0 0 131 40" fill="none" xmlns="http://www.w3.org/2000/svg">
<path d="M38.3488 27.9447C33.961 38.0785 22.189 42.7365 12.0553 38.3488C1.92152 33.961 -2.73653 22.189 1.65122 12.0553C6.03897 1.92152 17.811 -2.73653 27.9447 1.65122C38.0785 6.03897 42.7365 17.811 38.3488 27.9447Z" fill="url(#paint0_linear_195_369)"/>
<path d="M27.6024 19.8461C27.6618 19.915 27.7018 19.9982 27.7182 20.0872C27.7347 20.1762 27.727 20.2678 27.696 20.3528C27.665 20.4377 27.6118 20.5129 27.5418 20.5707L15.1721 31.3734C15.0814 31.4444 14.9692 31.4833 14.8533 31.4838C14.7374 31.4844 14.6246 31.4465 14.5327 31.3762C14.4408 31.306 14.3752 31.2074 14.3462 31.0962C14.3173 30.985 14.3267 30.8675 14.373 30.7625L16.7908 25.6547C17.4739 24.2115 16.7541 22.4947 15.246 21.9703L11.7776 20.7641C11.6909 20.734 11.6138 20.6815 11.5542 20.612C11.4947 20.5426 11.4548 20.4588 11.4388 20.3692C11.4228 20.2796 11.4312 20.1875 11.4632 20.1023C11.4951 20.0172 11.5494 19.9421 11.6205 19.8848L24.1191 9.12533C24.2112 9.05493 24.3247 9.01737 24.4412 9.0187C24.5578 9.02003 24.6707 9.06016 24.7617 9.13264C24.8527 9.20513 24.9165 9.30574 24.9429 9.41828C24.9693 9.53082 24.9566 9.64875 24.9071 9.75307L22.3819 14.7331C21.6465 16.1833 22.3588 17.9491 23.8946 18.4831L27.3799 19.6952C27.4662 19.7252 27.543 19.7772 27.6024 19.8461Z" fill="url(#paint1_linear_195_369)"/>
<path d="M52 19.4563C52 17.5486 52 15.6667 52 13.7591C52 13.6302 52 13.5013 52 13.3724C52.0268 13.1661 52.1606 13.0372 52.3748 13.0115C52.5086 13.0115 52.6424 13.0115 52.7763 13.0115C54.3288 13.0115 55.8814 12.9857 57.434 13.0115C58.0497 13.0372 58.6386 13.1146 59.2542 13.1661C59.8164 13.2177 60.3517 13.295 60.8871 13.3981C61.6366 13.5013 62.2791 13.8106 62.868 14.2489C63.4836 14.7387 63.7781 15.4347 63.8852 16.2081C63.9655 16.9041 63.9387 17.6259 63.7781 18.322C63.5907 19.1211 63.1089 19.7398 62.3861 20.1523C61.6634 20.6163 60.8336 20.8226 59.977 20.9257C58.933 21.0804 57.9158 21.0288 56.8986 21.0288C56.7648 21.0288 56.6577 21.0288 56.5239 21.0288C56.1223 21.0546 56.0688 21.1061 56.0688 21.5186C56.0688 22.756 56.0688 24.0192 56.0688 25.2566C56.0688 25.3855 56.0688 25.4886 56.0688 25.6175C56.0956 25.8495 55.9617 25.9269 55.7476 25.9269C55.1854 25.9269 54.6501 25.9269 54.1147 25.9269C53.5526 25.9269 52.9904 25.9269 52.4551 25.9269C52.1338 25.9269 52.0535 25.8495 52.0268 25.566C52 25.4113 52 25.2824 52 25.1277C52 23.2458 52 21.3639 52 19.4563ZM58.4779 17.9611C58.8795 17.9095 59.2542 17.9611 59.5755 17.6259C60.0037 17.1877 59.8164 16.4917 59.281 16.3112C58.933 16.2596 58.585 16.2339 58.237 16.2081C57.6214 16.1823 56.9789 16.1823 56.3632 16.1823C56.1491 16.1823 56.0688 16.2854 56.0688 16.4659C56.0688 16.9041 56.0688 17.3166 56.0688 17.7548C56.0688 17.9611 56.1491 18.0384 56.3632 18.0384C56.7112 18.0126 58.13 17.9869 58.4779 17.9611Z" fill="white"/>
<path d="M72.5999 24.741C72.252 25.0246 72.011 25.2308 71.7166 25.4371C71.1277 25.9011 70.4317 26.0815 69.6822 26.1073C68.8256 26.1589 67.969 26.1589 67.1392 25.9527C66.1755 25.6949 65.4796 25.1793 65.1851 24.277C65.0245 23.7614 64.8906 23.2201 64.8639 22.7045C64.8103 20.9257 64.7836 19.1469 64.7568 17.3682C64.7568 17.265 64.7568 17.1361 64.7568 17.033C64.7836 16.8268 64.8906 16.6979 65.1316 16.6979C66.1488 16.6979 67.166 16.6979 68.2099 16.6979C68.3973 16.6979 68.5312 16.801 68.5312 17.0072C68.5579 17.1361 68.5579 17.2908 68.5579 17.4197C68.5579 18.7602 68.5579 20.1008 68.5579 21.4155C68.5579 21.5186 68.5579 21.6475 68.5579 21.7506C68.6382 22.4725 68.9862 22.8076 69.7357 22.8591C70.1105 22.8849 70.512 22.8849 70.86 22.8334C71.8772 22.6529 72.5464 21.8537 72.5999 20.7195C72.6267 20.0234 72.5999 19.3274 72.5999 18.6313C72.5999 18.1415 72.5999 17.6517 72.5999 17.1619C72.6267 16.7752 72.6803 16.7237 73.055 16.6979C74.0187 16.6979 74.9556 16.6979 75.9192 16.6979C76.1869 16.6979 76.3475 16.801 76.3207 17.0846C76.3207 17.2908 76.3207 17.5228 76.3207 17.7291C76.3207 20.2039 76.3207 22.7045 76.3207 25.1793C76.3207 25.3082 76.3207 25.4628 76.3207 25.6175C76.3207 25.8753 76.1601 25.9269 75.9192 25.9269C75.3571 25.9269 74.7682 25.9269 74.1793 25.9269C73.7778 25.9269 73.3762 25.9269 72.9479 25.9269C72.707 25.9269 72.5999 25.8238 72.5999 25.6175C72.5999 25.334 72.5999 25.0762 72.5999 24.741Z" fill="white"/>
<path d="M81.1305 17.1619C81.2911 17.1104 81.3714 17.0846 81.4249 17.0588C82.8437 16.3885 84.3427 16.3885 85.8685 16.5432C86.4842 16.6206 87.0731 16.7752 87.6352 17.033C88.5721 17.4713 89.2145 18.1673 89.5625 19.0954C90.1247 20.6421 90.1247 22.1631 89.509 23.6841C89.0807 24.7152 88.2509 25.4371 87.1534 25.7722C85.5205 26.2878 83.8341 26.262 82.1745 25.8238C81.8532 25.7464 81.532 25.5917 81.184 25.4628C81.1305 25.5917 81.1037 25.7722 80.9966 25.8495C80.8896 25.9269 80.7022 25.9269 80.5416 25.9269C79.7118 25.9269 78.8819 25.9269 78.0521 25.9269C77.4097 25.9269 77.3829 25.9011 77.3829 25.2308C77.3829 23.9934 77.3829 22.7302 77.3829 21.4671C77.3829 18.9149 77.3829 16.3885 77.3829 13.8622C77.3829 13.2435 77.4364 13.1661 78.0789 13.1661C78.8819 13.1404 79.685 13.1404 80.488 13.1661C81.0502 13.1661 81.1037 13.2435 81.1305 13.8106C81.1305 14.7129 81.1305 15.6409 81.1305 16.5432C81.1305 16.7237 81.1305 16.9041 81.1305 17.1619ZM82.228 22.988C84.3159 23.6583 86.0559 22.9365 85.8953 21.0804C85.7346 19.4821 84.0482 19.2243 82.5224 19.5594C80.9431 19.8945 80.4077 22.3951 82.228 22.988Z" fill="white"/>
<path d="M91.0547 19.5852C91.0547 17.6775 91.0547 15.7698 91.0547 13.8622C91.0547 13.2435 91.1082 13.1661 91.7506 13.1661C92.5537 13.1404 93.33 13.1661 94.1062 13.1661C94.7219 13.1661 94.8022 13.2177 94.8022 13.8106C94.8022 16.2854 94.8022 18.7345 94.8022 21.2093C94.8022 22.6013 94.8022 23.9676 94.8022 25.3597C94.7755 25.9011 94.7755 25.9269 94.2401 25.9269C93.3835 25.9269 92.5269 25.9269 91.6436 25.9269C91.0547 25.9269 91.0547 25.9269 91.0547 25.3597C91.0547 23.4263 91.0547 21.4928 91.0547 19.5852Z" fill="white"/>
<path d="M95.8646 21.2866C95.8646 19.9976 95.8646 18.6829 95.8646 17.3939C95.8646 17.265 95.8646 17.1361 95.8646 17.033C95.8646 16.8268 95.9717 16.7237 96.1858 16.7237C97.1763 16.7237 98.1934 16.7237 99.2106 16.7237C99.4248 16.7237 99.5319 16.8526 99.5586 17.0588C99.5586 17.2135 99.5586 17.3424 99.5586 17.4971C99.5586 20.0492 99.5586 22.6271 99.5586 25.2051C99.5586 25.2824 99.5586 25.3855 99.5586 25.4628C99.5319 25.9269 99.5051 25.9527 99.0233 25.9527C98.1399 25.9527 97.2298 25.9527 96.3464 25.9527C95.8914 25.9527 95.8646 25.9269 95.8646 25.4886C95.8646 24.0965 95.8646 22.6787 95.8646 21.2866ZM97.7384 13.0372C98.2202 13.0372 98.6753 13.0372 99.1571 13.0372C99.5319 13.063 99.5586 13.0888 99.5586 13.3981C99.5586 14.3262 99.5586 14.584 99.5586 15.512C99.5586 15.7698 99.4248 15.8472 99.1839 15.8472C98.2202 15.8472 97.2565 15.8472 96.2929 15.8472C95.9449 15.8472 95.8646 15.7698 95.8646 15.4347C95.8646 14.5324 95.8646 14.3262 95.8646 13.4239C95.8646 13.0888 95.9181 13.063 96.2394 13.0372C96.748 13.0372 97.2298 13.0372 97.7384 13.0372Z" fill="white"/>
<path d="M110.339 25.566C108.439 26.1847 105.869 26.1073 104.049 25.6691C102.068 25.1793 100.729 23.8388 100.649 21.7764C100.515 19.7656 101.077 18.0126 103.005 17.0588C104.423 16.3112 108.305 15.8472 110.607 16.9557C111.651 17.4713 112.347 18.2962 112.855 19.2758C112.962 19.4821 112.909 19.611 112.695 19.7141C111.811 20.1265 110.928 20.539 110.018 20.9515C109.831 21.0546 109.67 21.003 109.563 20.7968C108.974 19.843 108.599 19.1727 107.02 19.1727C105.922 19.1727 104.825 19.4821 104.557 20.6421C104.316 21.6475 104.691 22.4467 105.708 22.9107C107.261 23.6583 108.706 23.0654 109.483 21.8795C109.643 21.6475 109.777 21.596 110.045 21.7249C110.901 22.1373 111.758 22.524 112.614 22.9365C112.989 23.1169 112.989 23.1427 112.829 23.5036C112.32 24.5864 111.437 25.1793 110.339 25.566Z" fill="white"/>
<path d="M114.006 19.5852C114.006 17.6775 114.006 15.7698 114.006 13.8622C114.006 13.2435 114.06 13.1661 114.702 13.1661C115.505 13.1404 116.282 13.1661 117.058 13.1661C117.674 13.1661 117.754 13.2177 117.754 13.8106C117.754 16.2854 117.754 18.7345 117.754 21.2093C117.754 22.6013 117.754 23.9676 117.754 25.3597C117.727 25.9011 117.727 25.9269 117.192 25.9269C116.335 25.9269 115.479 25.9269 114.595 25.9269C114.006 25.9269 114.006 25.9269 114.006 25.3597C114.006 23.4263 114.006 21.4928 114.006 19.5852Z" fill="white"/>
<path d="M124.973 21.4413C125.268 20.6421 126.526 17.6259 126.74 17.033C126.82 16.7752 126.954 16.6721 127.248 16.6721C128.373 16.6721 129.497 16.6721 130.621 16.6721C131.023 16.6721 131.076 16.7495 130.916 17.1361C130.461 18.1158 130.006 19.0954 129.551 20.1008C128.56 22.292 127.543 24.509 126.552 26.7003C126.285 27.2932 125.99 27.8861 125.723 28.479C125.321 29.304 124.598 29.7164 123.715 29.8711C123.153 29.9484 122.564 29.9742 121.975 30C121.306 30 120.637 30 119.967 30C119.673 30 119.566 29.8969 119.566 29.6133C119.566 28.8399 119.566 28.0666 119.566 27.2932C119.566 27.0096 119.673 26.9323 119.967 26.9065C120.77 26.9065 121.6 26.8549 122.43 26.8291C123.019 26.8034 123.206 26.5198 122.992 25.9527C122.778 25.4113 122.51 24.8699 122.27 24.3286C121.145 21.9569 120.048 19.5594 118.95 17.1877C118.897 17.1104 118.87 17.033 118.843 16.9299C118.79 16.7752 118.843 16.6979 119.004 16.6721C119.111 16.6721 119.245 16.6721 119.352 16.6721C120.369 16.6721 121.413 16.6721 122.43 16.6721C122.778 16.6463 122.965 16.7752 123.126 17.0588C123.742 18.322 124.866 21.3124 124.973 21.4413Z" fill="white"/>
<defs>
<linearGradient id="paint0_linear_195_369" x1="6.66667" y1="4.92754" x2="31.0145" y2="35.942" gradientUnits="userSpaceOnUse">
<stop stop-color="#FF665E"/>
<stop offset="1" stop-color="#FD4298"/>
</linearGradient>
<linearGradient id="paint1_linear_195_369" x1="20.148" y1="12.6035" x2="19.0877" y2="26.8095" gradientUnits="userSpaceOnUse">
<stop stop-color="#F9FD42"/>
<stop offset="1" stop-color="#FFAB5E"/>
</linearGradient>
</defs>
</svg>
